HIERARCHY
ROOT Hips
{
  OFFSET 5.84602e-005 68.8428 3.50346
  CHANNELS 6 Xposition Yposition Zposition Zrotation Xrotation Yrotation
  JOINT Spine
  {
    OFFSET 0 8.597 -4.6522
    CHANNELS 3 Zrotation Xrotation Yrotation
    JOINT Spine1
    {
      OFFSET 0 7.8454 0.4098
      CHANNELS 3 Zrotation Xrotation Yrotation
      JOINT Spine2
      {
        OFFSET 0 9.7078 -2.1609
        CHANNELS 3 Zrotation Xrotation Yrotation
        JOINT Neck
        {
          OFFSET 0 21.8761 -0.4549
          CHANNELS 3 Zrotation Xrotation Yrotation
          JOINT Head
          {
            OFFSET 0 12.3537 3.3602
            CHANNELS 3 Zrotation Xrotation Yrotation
            End Site
            {
              OFFSET 0.0001 18.9506 0.5657
            }
          }
        }
        JOINT LeftShoulder
        {
          OFFSET 2.2086 21.1115 7.2329
          CHANNELS 3 Zrotation Xrotation Yrotation
          JOINT LeftArm
          {
            OFFSET 13.1193 3.0282 -4.8998
            CHANNELS 3 Zrotation Xrotation Yrotation
            JOINT LeftForeArm
            {
              OFFSET 27.4081 -0.0973053 -0.2375
              CHANNELS 3 Zrotation Xrotation Yrotation
              JOINT LeftHand
              {
                OFFSET 22.8641 0.0662994 -0.1369
                CHANNELS 3 Zrotation Xrotation Yrotation
                JOINT LeftHandIndex1
                {
                  OFFSET 8.8614 0.775009 2.4612
                  CHANNELS 3 Zrotation Xrotation Yrotation
                  JOINT LeftHandIndex2
                  {
                    OFFSET 3.3146 -0.808304 0.5841
                    CHANNELS 3 Zrotation Xrotation Yrotation
                    JOINT LeftHandIndex3
                    {
                      OFFSET 2.2628 -0.552002 0.3989
                      CHANNELS 3 Zrotation Xrotation Yrotation
                      End Site
                      {
                        OFFSET 1.6102 -0.4807 0.2612
                      }
                    }
                  }
                }
                JOINT LeftHandMiddle1
                {
                  OFFSET 8.9937 0.895004 0.2143
                  CHANNELS 3 Zrotation Xrotation Yrotation
                  JOINT LeftHandMiddle2
                  {
                    OFFSET 4.0984 0.0113983 -0.0242
                    CHANNELS 3 Zrotation Xrotation Yrotation
                    JOINT LeftHandMiddle3
                    {
                      OFFSET 2.2716 0.00689697 -0.0138001
                      CHANNELS 3 Zrotation Xrotation Yrotation
                      End Site
                      {
                        OFFSET 2.0404 -0.1441 0.0027
                      }
                    }
                  }
                }
                JOINT LeftHandRing1
                {
                  OFFSET 8.5234 0.597198 -2.0164
                  CHANNELS 3 Zrotation Xrotation Yrotation
                  JOINT LeftHandRing2
                  {
                    OFFSET 3.7188 -0.188293 -0.2328
                    CHANNELS 3 Zrotation Xrotation Yrotation
                    JOINT LeftHandRing3
                    {
                      OFFSET 2.1191 -0.106598 -0.1332
                      CHANNELS 3 Zrotation Xrotation Yrotation
                      End Site
                      {
                        OFFSET 1.8737 -0.2304 -0.0886
                      }
                    }
                  }
                }
                JOINT LeftHandPinky1
                {
                  OFFSET 7.9094 -0.601089 -3.4825
                  CHANNELS 3 Zrotation Xrotation Yrotation
                  JOINT LeftHandPinky2
                  {
                    OFFSET 2.2874 -0.477005 -0.6314
                    CHANNELS 3 Zrotation Xrotation Yrotation
                    JOINT LeftHandPinky3
                    {
                      OFFSET 1.6774 -0.349396 -0.4633
                      CHANNELS 3 Zrotation Xrotation Yrotation
                      End Site
                      {
                        OFFSET 1.4888 -0.4091 -0.3416
                      }
                    }
                  }
                }
                JOINT LeftHandThumb1
                {
                  OFFSET 1.833 -1.3875 1.3896
                  CHANNELS 3 Zrotation Xrotation Yrotation
                  JOINT LeftHandThumb2
                  {
                    OFFSET 3.4129 -1.121 2.5732
                    CHANNELS 3 Zrotation Xrotation Yrotation
                    JOINT LeftHandThumb3
                    {
                      OFFSET 2.2474 -0.804199 1.6192
                      CHANNELS 3 Zrotation Xrotation Yrotation
                      End Site
                      {
                        OFFSET 1.6527 -0.5689 1.1317
                      }
                    }
                  }
                }
              }
            }
          }
        }
        JOINT RightShoulder
        {
          OFFSET -2.2086 21.1115 7.2329
          CHANNELS 3 Zrotation Xrotation Yrotation
          JOINT RightArm
          {
            OFFSET -13.1216 3.0287 -4.9007
            CHANNELS 3 Zrotation Xrotation Yrotation
            JOINT RightForeArm
            {
              OFFSET -27.4081 -0.0973053 -0.2375
              CHANNELS 3 Zrotation Xrotation Yrotation
              JOINT RightHand
              {
                OFFSET -22.8641 0.0664063 -0.1369
                CHANNELS 3 Zrotation Xrotation Yrotation
                JOINT RightHandIndex1
                {
                  OFFSET -8.8614 0.774994 2.4612
                  CHANNELS 3 Zrotation Xrotation Yrotation
                  JOINT RightHandIndex2
                  {
                    OFFSET -3.3146 -0.808304 0.5841
                    CHANNELS 3 Zrotation Xrotation Yrotation
                    JOINT RightHandIndex3
                    {
                      OFFSET -2.2628 -0.552002 0.3989
                      CHANNELS 3 Zrotation Xrotation Yrotation
                      End Site
                      {
                        OFFSET -1.6102 -0.4807 0.2612
                      }
                    }
                  }
                }
                JOINT RightHandMiddle1
                {
                  OFFSET -8.9937 0.894989 0.2143
                  CHANNELS 3 Zrotation Xrotation Yrotation
                  JOINT RightHandMiddle2
                  {
                    OFFSET -4.0984 0.0113983 -0.0242
                    CHANNELS 3 Zrotation Xrotation Yrotation
                    JOINT RightHandMiddle3
                    {
                      OFFSET -2.2716 0.00691223 -0.0138001
                      CHANNELS 3 Zrotation Xrotation Yrotation
                      End Site
                      {
                        OFFSET -2.0404 -0.1441 0.0027
                      }
                    }
                  }
                }
                JOINT RightHandRing1
                {
                  OFFSET -8.5234 0.597198 -2.0164
                  CHANNELS 3 Zrotation Xrotation Yrotation
                  JOINT RightHandRing2
                  {
                    OFFSET -3.7188 -0.188309 -0.2328
                    CHANNELS 3 Zrotation Xrotation Yrotation
                    JOINT RightHandRing3
                    {
                      OFFSET -2.1191 -0.106598 -0.1332
                      CHANNELS 3 Zrotation Xrotation Yrotation
                      End Site
                      {
                        OFFSET -1.8737 -0.2304 -0.0886
                      }
                    }
                  }
                }
                JOINT RightHandPinky1
                {
                  OFFSET -7.9094 -0.601105 -3.4825
                  CHANNELS 3 Zrotation Xrotation Yrotation
                  JOINT RightHandPinky2
                  {
                    OFFSET -2.2874 -0.477005 -0.6314
                    CHANNELS 3 Zrotation Xrotation Yrotation
                    JOINT RightHandPinky3
                    {
                      OFFSET -1.6774 -0.349396 -0.4633
                      CHANNELS 3 Zrotation Xrotation Yrotation
                      End Site
                      {
                        OFFSET -1.4888 -0.4091 -0.3416
                      }
                    }
                  }
                }
                JOINT RightHandThumb1
                {
                  OFFSET -1.833 -1.38751 1.3896
                  CHANNELS 3 Zrotation Xrotation Yrotation
                  JOINT RightHandThumb2
                  {
                    OFFSET -3.41299 -1.12099 2.5732
                    CHANNELS 3 Zrotation Xrotation Yrotation
                    JOINT RightHandThumb3
                    {
                      OFFSET -2.24741 -0.804108 1.6192
                      CHANNELS 3 Zrotation Xrotation Yrotation
                      End Site
                      {
                        OFFSET -1.6527 -0.5689 1.1317
                      }
                    }
                  }
                }
              }
            }
          }
        }
      }
    }
  }
  JOINT RightUpLeg
  {
    OFFSET -9.1966 3.8861 -0.7581
    CHANNELS 3 Zrotation Xrotation Yrotation
    JOINT RightLeg
    {
      OFFSET -0.7359 -41.0265 0
      CHANNELS 3 Zrotation Xrotation Yrotation
      JOINT RightFoot
      {
        OFFSET 0 -40.2855 0
        CHANNELS 3 Zrotation Xrotation Yrotation
        JOINT RightToeBase
        {
          OFFSET 0 -5.6122 11.7359
          CHANNELS 3 Zrotation Xrotation Yrotation
          End Site
          {
            OFFSET 0 0 7.8731
          }
        }
      }
    }
  }
  JOINT LeftUpLeg
  {
    OFFSET 9.1965 3.8864 -0.7581
    CHANNELS 3 Zrotation Xrotation Yrotation
    JOINT LeftLeg
    {
      OFFSET 0.7359 -41.0268 0
      CHANNELS 3 Zrotation Xrotation Yrotation
      JOINT LeftFoot
      {
        OFFSET 0 -40.2855 0
        CHANNELS 3 Zrotation Xrotation Yrotation
        JOINT LeftToeBase
        {
          OFFSET 0 -5.6122 11.7359
          CHANNELS 3 Zrotation Xrotation Yrotation
          End Site
          {
            OFFSET 0 0 7.8731
          }
        }
      }
    }
  }
}
MOTION
Frames:	4
Frame Time:	0.0333333
0.00127279 68.713 47.5293 180 75.004 -180 -0.378101 -4.12641 -0.700348 -0.810055 -8.24779 -1.43366 -0.810055 -8.24781 -1.43366 -5.47232e-007 0.0150807 -3.20404e-006 8.21661e-008 0.0192369 -1.59235e-007 10.4773 8.53606 -45.0009 -16.1995 -26.2937 -26.2416 14.4716 -2.68667 -26.1335 38.4818 -6.96885 -7.09183 -2.61874e-007 3.12246e-007 1.24339e-007 -4.41391e-032 1.59028e-015 1.59028e-015 -3.18055e-015 1.59028e-015 1.59028e-015 -2.61874e-007 3.12246e-007 1.24339e-007 -0.0146183 -9.03865e-005 7.28998e-006 -3.18055e-015 5.56597e-015 1.59028e-015 -2.61874e-007 3.12246e-007 1.24339e-007 -0.0187221 -0.00117374 5.28621e-005 -3.18055e-015 1.59028e-015 -0 -2.61874e-007 3.12246e-007 1.24339e-007 -0.0122537 -0.0032435 0.000669998 3.18055e-015 -6.36111e-015 1.59028e-015 -2.61874e-007 3.12246e-007 1.24339e-007 -4.41391e-032 1.59028e-015 1.59028e-015 -3.18055e-015 1.59028e-015 1.59028e-015 -10.3475 8.51051 44.4977 16.9076 -25.8087 27.7678 -14.8081 -2.91612 27.668 -38.5176 -6.17771 6.63826 -0 -4.77083e-015 -0 5.45052e-007 6.14682e-007 -2.16738e-007 5.45052e-007 6.14682e-007 -2.16738e-007 -0 -4.77083e-015 -0 0.0149574 -9.12051e-005 -3.87876e-007 5.45041e-007 6.14654e-007 -2.16819e-007 -0 -4.77083e-015 -0 0.0189918 -0.00118653 -5.25199e-005 5.45035e-007 6.14647e-007 -2.16845e-007 -0 -4.77083e-015 -0 0.0123182 -0.0032608 -0.00068088 5.45033e-007 6.14665e-007 -2.16819e-007 -0 -4.77083e-015 -0 5.45052e-007 6.14682e-007 -2.16738e-007 5.45052e-007 6.14682e-007 -2.16738e-007 -164.248 -77.6392 -163.082 4.80737 2.32436 -1.6689 -6.73543 35.7284 -2.6073 1.98785e-015 -3.18055e-015 -1.98785e-016 163.953 -76.803 164.617 -5.70254 4.15104 1.7818 6.91935 36.6846 2.43116 -1.74336e-006 -3.08925e-006 -4.7665e-007 
0.00127279 68.713 47.6374 180 75.004 -180 -0.376123 -3.97154 -0.701414 -0.803994 -7.93804 -1.4342 -0.803994 -7.93807 -1.4342 -6.69487e-007 0.0141039 2.13728e-006 2.17562e-007 0.0179541 6.86836e-008 10.6389 8.05341 -44.8963 -16.1995 -26.2937 -26.2416 14.4716 -2.68669 -26.1335 38.7127 -7.12533 -7.01639 -2.61833e-007 3.1222e-007 1.24466e-007 -5.23666e-007 6.2444e-007 2.48932e-007 -2.61833e-007 3.1222e-007 1.24466e-007 -2.61833e-007 3.1222e-007 1.24466e-007 -0.0145962 -8.73968e-005 -1.11322e-006 -2.61829e-007 3.12204e-007 1.24506e-007 -2.61833e-007 3.1222e-007 1.24466e-007 -0.0187574 -0.00117493 5.74838e-005 -2.61827e-007 3.122e-007 1.2452e-007 -2.61833e-007 3.1222e-007 1.24466e-007 -0.012303 -0.00325711 0.00067809 -2.61825e-007 3.12209e-007 1.24507e-007 -2.61833e-007 3.1222e-007 1.24466e-007 -5.23666e-007 6.2444e-007 2.48932e-007 -2.61833e-007 3.1222e-007 1.24466e-007 -10.4966 8.04749 44.3638 16.9076 -25.8087 27.7677 -14.8081 -2.91612 27.668 -38.7692 -6.30871 6.50958 6.36111e-015 0 1.59028e-015 -5.44771e-007 -6.14862e-007 2.16681e-007 -1.08954e-006 -1.22972e-006 4.33363e-007 6.36111e-015 0 1.59028e-015 0.0149923 -9.16335e-005 5.34033e-006 -1.08952e-006 -1.22967e-006 4.33525e-007 6.36111e-015 0 1.59028e-015 0.0190488 -0.0011916 -5.05239e-005 -1.08951e-006 -1.22965e-006 4.33579e-007 6.36111e-015 0 1.59028e-015 0.0121706 -0.00322341 -0.000679868 -1.0895e-006 -1.22969e-006 4.33523e-007 6.36111e-015 0 1.59028e-015 -5.44771e-007 -6.14862e-007 2.16681e-007 -1.08954e-006 -1.22972e-006 4.33363e-007 -164.248 -77.6392 -163.082 4.80737 2.32436 -1.6689 -6.73543 35.7284 -2.6073 1.98785e-015 -3.18055e-015 -1.98785e-016 163.933 -76.813 164.597 -5.70238 4.12795 1.7794 7.00656 36.589 2.32856 7.95139e-016 -1.59028e-014 -2.38542e-015 
0.00127279 68.713 47.7454 180 75.004 -180 -0.374082 -3.8168 -0.702399 -0.797813 -7.62858 -1.43461 -0.797813 -7.62861 -1.43461 1.2676e-006 0.0131087 2.48308e-006 8.92493e-007 0.0166679 -7.17825e-008 10.8013 7.57105 -44.7905 -16.1995 -26.2937 -26.2416 14.4716 -2.68669 -26.1335 38.9438 -7.28148 -6.94029 -2.61794e-007 3.1219e-007 1.24596e-007 -7.85383e-007 9.36571e-007 3.73788e-007 -2.61794e-007 3.1219e-007 1.24596e-007 -2.61794e-007 3.1219e-007 1.24596e-007 -0.0146445 -9.01352e-005 2.08425e-006 -2.61791e-007 3.12174e-007 1.24636e-007 -2.61794e-007 3.1219e-007 1.24596e-007 -0.0187366 -0.00117287 5.41888e-005 -2.61789e-007 3.1217e-007 1.2465e-007 -2.61794e-007 3.1219e-007 1.24596e-007 -0.0122206 -0.00323746 0.000683721 -2.61786e-007 3.12179e-007 1.24637e-007 -2.61794e-007 3.1219e-007 1.24596e-007 -7.85383e-007 9.36571e-007 3.73788e-007 -2.61794e-007 3.1219e-007 1.24596e-007 -10.6466 7.58482 44.2289 16.9076 -25.8087 27.7677 -14.8081 -2.9161 27.668 -39.0211 -6.43918 6.3803 -8.82781e-032 -3.18055e-015 -1.59028e-015 0 0 -1.59028e-015 0 7.95139e-016 -0 -8.82781e-032 -3.18055e-015 -1.59028e-015 0.0149869 -8.9533e-005 4.0492e-006 4.41391e-032 1.59028e-015 -1.59028e-015 -8.82781e-032 -3.18055e-015 -1.59028e-015 0.0189724 -0.00118751 -5.1209e-005 3.18055e-015 -1.59028e-015 -0 -8.82781e-032 -3.18055e-015 -1.59028e-015 0.0123893 -0.00328377 -0.000685569 -2.42765e-031 -8.74653e-015 -1.59028e-015 -8.82781e-032 -3.18055e-015 -1.59028e-015 0 0 -1.59028e-015 0 7.95139e-016 -0 -164.248 -77.6392 -163.082 4.80737 2.32436 -1.6689 -6.73543 35.7284 -2.6073 -5.48651e-007 -3.70563e-008 2.49022e-007 163.912 -76.8233 164.577 -5.70221 4.10426 1.77694 7.09345 36.4935 2.22625 -5.50868e-007 -3.15182e-006 -2.54647e-009 
0.00127279 68.713 47.8535 180 75.004 -180 -0.371981 -3.66227 -0.703304 -0.791518 -7.3196 -1.43488 -0.791519 -7.3196 -1.43489 7.52361e-006 0.012043 -4.11711e-006 -7.96899e-007 0.0154025 -6.18465e-007 10.9643 7.08904 -44.6835 -16.1995 -26.2937 -26.2417 14.4716 -2.68669 -26.1335 39.1752 -7.43734 -6.86354 -9.54166e-015 -4.77083e-015 -1.59028e-015 -1.27222e-014 -4.77083e-015 -1.59028e-015 -9.54166e-015 -3.18055e-015 -0 -9.54166e-015 -4.77083e-015 -1.59028e-015 -0.0146148 -8.70407e-005 3.13698e-006 3.18055e-015 -1.59028e-015 1.59028e-015 -9.54166e-015 -4.77083e-015 -1.59028e-015 -0.0187171 -0.00117214 5.64937e-005 -3.18055e-015 0 -1.59028e-015 -9.54166e-015 -4.77083e-015 -1.59028e-015 -0.012302 -0.00325941 0.000680823 5.96207e-007 -9.84325e-008 7.70879e-007 -9.54166e-015 -4.77083e-015 -1.59028e-015 -1.27222e-014 -4.77083e-015 -1.59028e-015 -9.54166e-015 -3.18055e-015 -0 -10.7975 7.12255 44.093 16.9076 -25.8087 27.7677 -14.8081 -2.91611 27.668 -39.2734 -6.56904 6.25041 6.62086e-032 2.38542e-015 -1.59028e-015 -6.36111e-015 0 -0 -6.36111e-015 -3.18055e-015 -0 6.62086e-032 2.38542e-015 -1.59028e-015 0.0150302 -9.46482e-005 -5.64882e-006 -0 -3.97569e-015 -0 6.62086e-032 2.38542e-015 -1.59028e-015 0.0189947 -0.00118893 -6.16611e-005 6.36111e-015 -1.59028e-015 -0 6.62086e-032 2.38542e-015 -1.59028e-015 0.0122767 -0.00325058 -0.00067749 3.18055e-015 -1.59028e-015 -4.77083e-015 6.62086e-032 2.38542e-015 -1.59028e-015 -6.36111e-015 0 -0 -6.36111e-015 -3.18055e-015 -0 -164.248 -77.6392 -163.082 4.80737 2.32436 -1.6689 -6.73544 35.7284 -2.60729 -5.96354e-016 -1.90833e-014 1.98785e-016 163.892 -76.8336 164.556 -5.70204 4.08061 1.77445 7.17998 36.3979 2.12429 8.44827e-008 -1.84944e-006 -1.0047e-006 
